<svg xmlns="http://www.w3.org/2000/svg" viewBox="0 0 284.12 256.95"><title>Asset 2</title><g id="Layer_2" data-name="Layer 2"><g id="Layer_1-2" data-name="Layer 1"><path d="M242.2,97.8V0h-81V53.24h-43.4V0H36.18V47.46l-17.94-2.9L0,77.87l18.24,35q9,1.78,18.52,3.23V257h82.17V174.77c14.64-.18,29.1-.41,43-.77V257h79.27V169.1a209.1,209.1,0,0,0,20.63-3.59l22.25-36.89L261.87,94.33A101.26,101.26,0,0,1,242.2,97.8ZM56.43,18.52H99.26V53.24C84.72,52.3,70,51.46,56.43,49.38Zm-19.09,48c38.08,5.71,87.82,7,144.09,5.79V18.52h41.09v82.76c-66,5.42-128.42,5.33-185.18-3.48ZM222.52,238.18H182v-64.8c14.48-.54,28.14-1.27,40.51-2.32Zm18.72-89.31q-9.12,1.41-18.72,2.47-19.36,2.16-40.51,3-9.82.41-20,.53-30.66.4-64.45-1.51v84.49H56.43V118.75c52.25,6,114.18,5.4,185.19-1.27l.58,31.25Z" style="fill:#fff"/><path d="M36.76,116.26v10.1a84.83,84.83,0,0,0,19.67,2.25v-9.73Z" style="fill:#ffdf5a"/><path d="M182,173.5v11.64q-9.82.41-20,.53V173.5Z" style="fill:#fff"/><path d="M182,173.5v11.64q-9.82.41-20,.53V174C168.78,173.92,175.46,173.77,182,173.5Z" style="fill:#ffdf5a"/><path d="M241.24,169.1v10.61q-9.12,1.41-18.72,2.47V171.13C228.91,170.42,235.16,170,241.24,169.1Z" style="fill:#b3b3b3"/><path d="M241.24,169.1v10.61q-9.12,1.41-18.72,2.47V171.13C228.91,170.42,235.16,170,241.24,169.1Z" style="fill:#ffdf5a"/></g></g></svg>